{
    "accessors" : [
        {
            "bufferView" : 0,
            "componentType" : 5123,
            "count" : 3048,
            "max" : [
                2551
            ],
            "min" : [
                0
            ],
            "type" : "SCALAR"
        },
        {
            "bufferView" : 1,
            "componentType" : 5126,
            "count" : 2552,
            "max" : [
                0.9128559231758118,
                2.479381799697876,
                1.244720697402954
            ],
            "min" : [
                -0.9128559231758118,
                0.0,
                -1.2410292625427246
            ],
            "type" : "VEC3"
        },
        {
            "bufferView" : 2,
            "componentType" : 5126,
            "count" : 2552,
            "max" : [
                0.984190046787262,
                0.9343060851097107,
                0.9999591112136841
            ],
            "min" : [
                -0.984190046787262,
                -1.0,
                -0.9819262027740479
            ],
            "type" : "VEC3"
        },
        {
            "bufferView" : 3,
            "componentType" : 5126,
            "count" : 2552,
            "max" : [
                1.0,
                1.0
            ],
            "min" : [
                0.0,
                0.0
            ],
            "type" : "VEC2"
        }
    ],
    "asset" : {
        "generator" : "Khronos Blender glTF 2.0 exporter",
        "version" : "2.0"
    },
    "bufferViews" : [
        {
            "buffer" : 0,
            "byteLength" : 6096,
            "byteOffset" : 0,
            "target" : 34963
        },
        {
            "buffer" : 0,
            "byteLength" : 30624,
            "byteOffset" : 6096,
            "target" : 34962
        },
        {
            "buffer" : 0,
            "byteLength" : 30624,
            "byteOffset" : 36720,
            "target" : 34962
        },
        {
            "buffer" : 0,
            "byteLength" : 20416,
            "byteOffset" : 67344,
            "target" : 34962
        }
    ],
    "buffers" : [
        {
            "byteLength" : 87760,
            "uri" : "binary-tree.bin"
        }
    ],
    "meshes" : [
        {
            "name" : "binary-tree-simple",
            "primitives" : [
                {
                    "attributes" : {
                        "NORMAL" : 2,
                        "POSITION" : 1,
                        "TEXCOORD_0" : 3
                    },
                    "indices" : 0
                }
            ]
        }
    ],
    "nodes" : [
        {
            "mesh" : 0,
            "name" : "binary-tree-simple",
            "rotation" : [
                0.7071068286895752,
                0.0,
                0.0,
                0.7071067094802856
            ],
            "scale" : [
                150.0,
                150.0,
                150.0
            ]
        }
    ],
    "scene" : 0,
    "scenes" : [
        {
            "name" : "Scene",
            "nodes" : [
                0
            ]
        }
    ]
}
