<?xml version="1.0" encoding="utf-8"?>
<!-- Generator: Adobe Illustrator 22.1.0, SVG Export Plug-In . SVG Version: 6.00 Build 0)  -->
<svg version="1.1" id="Layer_1" xmlns="http://www.w3.org/2000/svg" xmlns:xlink="http://www.w3.org/1999/xlink" x="0px" y="0px"
	 viewBox="0 0 18 18" style="enable-background:new 0 0 18 18;" xml:space="preserve">
<style type="text/css">
	.st0{fill:#FFFFFF;enable-background:new    ;}
</style>
<path class="st0" d="M15,3h0.7V1.5h-1.5v0.8L12,1.1L14.2,0v0.7h2.3V3h0.8l-1.1,2.2C16.1,5.3,15,3,15,3z M6,6v4.2H0V0h10.1v6H6z
	 M6.7,14.7v-8h8L13.5,8H8v5.5C8,13.5,6.7,14.7,6.7,14.7z M18,6.5l-1.1,1.1v9.3H7.6L6.5,18l-0.9-0.9L17.1,5.6L18,6.5z M15.6,8.9
	l-6.7,6.7h6.7V8.9z"/>
</svg>
