<svg xmlns="http://www.w3.org/2000/svg" width="16" height="16">
    <path fill="#ffffff" fill-rule="evenodd" d="M15 16H1a1 1 0 0 1-1-1V2.5a1 1 0 0 1 1-1h3.996V.504a.5.5 0 1 1 1 0V1.5h4.001V.504a.499.499 0 1 1 .999 0V1.5H15a1 1 0 0 1 1 1V15a1 1 0 0 1-1 1zm0-13.5h-4.004v.504a.5.5 0 1 1-.999 0V2.5H5.996v.504a.5.5 0 1 1-1 0V2.5H1V15h14V2.5zM3.5 6h1a.5.5 0 0 1 .5.5v1a.5.5 0 0 1-.5.5h-1a.5.5 0 0 1-.5-.5v-1a.5.5 0 0 1 .5-.5zm0 4h1a.5.5 0 0 1 .5.5v1a.5.5 0 0 1-.5.5h-1a.5.5 0 0 1-.5-.5v-1a.5.5 0 0 1 .5-.5zm4-4h1a.5.5 0 0 1 .5.5v1a.5.5 0 0 1-.5.5h-1a.5.5 0 0 1-.5-.5v-1a.5.5 0 0 1 .5-.5zm0 4h1a.5.5 0 0 1 .5.5v1a.5.5 0 0 1-.5.5h-1a.5.5 0 0 1-.5-.5v-1a.5.5 0 0 1 .5-.5zm4-4h1a.5.5 0 0 1 .5.5v1a.5.5 0 0 1-.5.5h-1a.5.5 0 0 1-.5-.5v-1a.5.5 0 0 1 .5-.5zm0 4h1a.5.5 0 0 1 .5.5v1a.5.5 0 0 1-.5.5h-1a.5.5 0 0 1-.5-.5v-1a.5.5 0 0 1 .5-.5z"/>
</svg>
